<?xml version="1.0" encoding="utf-8" ?>
<svg xmlns="http://www.w3.org/2000/svg" xmlns:xlink="http://www.w3.org/1999/xlink" width="250" height="250">
	<path fill="#B5838D" transform="matrix(0.244141 0 0 0.244141 -3.05176e-05 -3.05176e-05)" d="M-0 -0L1024 0L1024 1024L-0 1024L0 -0Z"/>
	<path fill="#187777" transform="matrix(0.244141 0 0 0.244141 -3.05176e-05 -3.05176e-05)" d="M140.937 738.115C141.928 732.776 142.069 727.19 142.973 721.797C146.178 702.654 154.349 685.703 166.524 670.624C170.196 673.929 173.156 677.79 176.19 681.662C186.363 695.831 192.868 710.466 195.793 727.728C196.235 730.337 196.573 732.916 196.765 735.556C196.888 737.252 196.798 739.365 197.523 740.898L198.968 740.92C205.73 748.184 207.704 759.026 207.328 768.702C207.209 771.766 206.878 774.778 206.122 777.75C204.492 784.159 201.499 788.661 197.772 793.991L143.514 793.603L134.859 793.327C129.806 789.698 124.806 786.089 120.456 781.602C104.06 764.692 98.691 741.518 98.9892 718.577C115.085 722.19 128.067 727.619 140.937 738.115Z"/>
	<path fill="#192A51" transform="matrix(0.244141 0 0 0.244141 -3.05176e-05 -3.05176e-05)" d="M141 738.369C143.788 740.418 146.943 742.16 149.535 744.423C162.036 755.334 166.789 771.437 171.259 786.733C174.371 770.465 180.232 751.281 194.835 741.505C195.773 740.877 196.421 740.993 197.523 740.898L198.968 740.92C205.73 748.184 207.704 759.026 207.328 768.702C207.209 771.766 206.878 774.778 206.122 777.75C204.492 784.159 201.499 788.661 197.772 793.991L143.514 793.603C135.82 783.33 132.9 769.204 134.339 756.583C134.944 751.276 136.618 741.86 141 738.369Z"/>
	<path fill="#022F40" transform="matrix(0.244141 0 0 0.244141 -3.05176e-05 -3.05176e-05)" d="M197.772 793.991C200.625 794.118 205.987 794.745 208.639 794.078C209.074 793.969 210.752 792.135 211.159 791.762L220.31 783.321C221.834 781.839 224.327 778.721 226.331 778.191C224.621 780.229 222.902 782.301 220.974 784.139C218.682 786.325 211.044 791.609 210.179 794.311L219.157 794.34C222.438 794.128 230.686 793.014 233.528 794.429C234.662 795.036 235.329 795.138 235.646 796.5C236.172 798.765 235.766 801.993 235.763 804.36L235.721 816.196C235.705 818.379 235.948 820.816 235.25 822.895C233.504 824.325 228.663 823.795 226.377 823.737L226.307 875.372L226.282 888.389C226.281 891.176 226.552 894.096 225.931 896.835C224.814 901.754 222.325 906.538 218.73 910.079C216.823 911.956 214.612 913.31 212.344 914.698L211.795 914.774C209.504 915.373 207.864 915.991 205.454 916.149C196.626 916.727 187.459 916.096 178.602 916.077L153.728 916.043C147.79 916.031 141.135 916.82 135.519 914.731C132.995 913.494 130.639 912.095 128.62 910.111C125.368 906.917 122.776 902.489 121.821 898.039C121.228 895.28 121.471 892.202 121.463 889.378L121.452 874.924L121.479 823.963L109.154 823.864C108.743 817.749 109.021 811.443 109.016 805.309C109.014 802.316 108.506 798.391 109.465 795.551L110.221 794.269C112.373 793.565 115.102 793.846 117.369 793.825C123.078 793.773 129.223 794.196 134.859 793.327L143.514 793.603L197.772 793.991Z"/>
	<path fill="#D16259" transform="matrix(0.244141 0 0 0.244141 -3.05176e-05 -3.05176e-05)" d="M110.599 796.673L139.8 796.437C140.202 801.448 140.557 806.919 144.774 810.342C146.991 812.142 150.199 813.459 153 813.913C161.863 815.349 172.008 814.496 181.005 814.528L233.523 814.862L233.412 821.507L111.03 821.586L111.091 805.637C111.093 803.132 111.438 799.952 110.835 797.54L110.599 796.673Z"/>
	<path fill="#FC947E" transform="matrix(0.244141 0 0 0.244141 -3.05176e-05 -3.05176e-05)" d="M218.745 796.303C223.367 796.051 228.322 796.514 232.84 795.5C233.927 797.971 233.644 800.64 233.624 803.287L233.523 814.862L181.005 814.528C172.008 814.496 161.863 815.349 153 813.913C150.199 813.459 146.991 812.142 144.774 810.342C140.557 806.919 140.202 801.448 139.8 796.437L207.032 796.387L218.745 796.303Z"/>
	<path fill="#AC4A47" transform="matrix(0.244141 0 0 0.244141 -3.05176e-05 -3.05176e-05)" d="M219.379 902.317L218.031 904.5C215.107 908.462 210.273 911.45 205.369 912.15C201.932 912.64 198.176 912.37 194.699 912.357L176.158 912.357L152.962 912.341C148.926 912.333 144.477 912.678 140.5 912.007C137.764 911.545 135.324 910.007 133.15 908.351C129.478 905.556 125.985 900.854 125.425 896.171L125.353 895.5C124.399 887.283 124.99 878.464 124.998 870.165L125.014 824.437L222.587 824.552L222.587 847.517L222.501 878.96C222.478 883.808 222.91 889.212 222.237 893.998C221.818 896.98 220.722 899.648 219.379 902.317Z"/>
	<path fill="#D16259" transform="matrix(0.244141 0 0 0.244141 -3.05176e-05 -3.05176e-05)" d="M219.379 902.317L191.25 902.16C187.168 902.122 182.055 902.677 178.088 901.855C174.727 901.158 171.09 899.073 168.603 896.75C156.99 885.905 156.087 862.065 155.982 847.214L222.587 847.517L222.501 878.96C222.478 883.808 222.91 889.212 222.237 893.998C221.818 896.98 220.722 899.648 219.379 902.317Z"/>
	<path fill="#FFCDB2" transform="matrix(0.244141 0 0 0.244141 -3.05176e-05 -3.05176e-05)" d="M251.359 564.562C260.704 586.978 274.453 606.131 293.915 620.871C298.358 624.236 303.107 626.93 307.757 629.968C301.986 636.998 296.739 644.556 294.363 653.461C292.384 660.882 291.585 668.932 290.388 676.524L284.242 716.842L270.57 808.664L262.301 860.737L259.436 878.5C258.683 883.05 257.54 888.122 257.946 892.746C258.677 901.067 263.251 908.147 269.695 913.254L271.882 914.894C270.579 915.572 217.151 915.362 212.344 914.698C214.612 913.31 216.823 911.956 218.73 910.079C222.325 906.538 224.814 901.754 225.931 896.835C226.552 894.096 226.281 891.176 226.282 888.389L226.307 875.372L226.377 823.737C228.663 823.795 233.504 824.325 235.25 822.895C235.948 820.816 235.705 818.379 235.721 816.196L235.763 804.36C235.766 801.993 236.172 798.765 235.646 796.5C235.329 795.138 234.662 795.036 233.528 794.429C230.686 793.014 222.438 794.128 219.157 794.34L210.179 794.311C211.044 791.609 218.682 786.325 220.974 784.139C222.902 782.301 224.621 780.229 226.331 778.191C224.327 778.721 221.834 781.839 220.31 783.321L211.159 791.762C210.752 792.135 209.074 793.969 208.639 794.078C205.987 794.745 200.625 794.118 197.772 793.991C201.499 788.661 204.492 784.159 206.122 777.75C206.878 774.778 207.209 771.766 207.328 768.702C207.704 759.026 205.73 748.184 198.968 740.92L197.523 740.898C196.798 739.365 196.888 737.252 196.765 735.556C196.573 732.916 196.235 730.337 195.793 727.728C192.868 710.466 186.363 695.831 176.19 681.662L184.698 663.863C196.361 639.557 209.486 616.661 225.566 595C233.469 584.354 241.791 573.77 251.359 564.562Z"/>
	<path fill="#187777" transform="matrix(0.244141 0 0 0.244141 -3.05176e-05 -3.05176e-05)" d="M198.968 740.92C203.058 737.37 207.217 733.53 211.778 730.607C220.989 724.703 231.924 720.949 242.698 719.212C244.332 739.573 240.933 760.967 227.354 777.077L226.331 778.191C224.327 778.721 221.834 781.839 220.31 783.321L211.159 791.762C210.752 792.135 209.074 793.969 208.639 794.078C205.987 794.745 200.625 794.118 197.772 793.991C201.499 788.661 204.492 784.159 206.122 777.75C206.878 774.778 207.209 771.766 207.328 768.702C207.704 759.026 205.73 748.184 198.968 740.92Z"/>
	<path fill="#4A4063" transform="matrix(0.244141 0 0 0.244141 -3.05176e-05 -3.05176e-05)" d="M135.519 914.731C141.135 916.82 147.79 916.031 153.728 916.043L178.602 916.077C187.459 916.096 196.626 916.727 205.454 916.149C207.864 915.991 209.504 915.373 211.795 914.774L212.344 914.698C217.151 915.362 270.579 915.572 271.882 914.894C273.845 916.493 276.09 916.321 278.5 916.35L373.393 916.473L589.925 916.654L692.705 916.519L724.039 916.527C729.342 916.527 735.025 916.924 740.283 916.414C742.266 916.222 744.224 915.574 746.051 914.802C748.023 915.808 851.026 915.11 862.847 915.138L949.037 915.025L949.072 945.762L74.991 945.905L74.8402 915.05L114.404 915.053C121.143 915.05 128.307 915.54 134.997 914.796L135.519 914.731Z"/>
	<path fill="#FFCDB2" transform="matrix(0.244141 0 0 0.244141 -3.05176e-05 -3.05176e-05)" d="M774.148 563.367C785.325 575.305 794.561 589.811 803.457 603.461C832.612 648.193 853.789 700.243 863.26 752.852C869 784.731 870.669 816.98 869.599 849.31L862.847 915.138C851.026 915.11 748.023 915.808 746.051 914.802L751.314 912.021C757.993 907.643 762.033 900.286 763.542 892.591C764.194 889.268 764.189 885.88 763.898 882.516C762.846 870.398 760.406 858.173 758.647 846.124L743.684 752.896L732.532 689.25C730.291 677.363 728.263 665.17 724.993 653.529C722.554 644.843 719.222 638.12 714.169 630.642C720.404 627.792 726.507 623.512 731.997 619.416C751.537 604.838 765.539 586.184 774.148 563.367Z"/>
	<path fill="#192A51" transform="matrix(0.244141 0 0 0.244141 -3.05176e-05 -3.05176e-05)" d="M251.359 564.562L250.383 562.03C240.716 536.257 240.354 507.778 250.165 481.956C255.142 468.855 262.622 456.723 270.937 445.489C282.845 429.399 296.483 414.863 306.698 397.526L313.787 384.333C314.336 383.272 315.752 381.207 315.945 380.15C316.443 377.422 315.129 372.352 314.804 369.5C313.882 361.401 312.899 353.12 312.642 344.979C312.489 340.152 313.507 335.456 313.465 330.599C313.091 286.67 314.682 242.922 330.38 201.279C348.088 154.305 384.916 115.066 430.686 94.477C479.97 72.307 535.472 71.6799 585.75 91.0266C623.713 105.635 656.694 132.884 678.433 167.25C683.807 175.746 688.255 184.835 692.327 194.016C706.74 226.506 713.155 262.757 711.452 298.244C711.153 304.476 710.592 310.996 709.667 317.163C709.297 319.633 708.122 322.839 708.059 325.225C708.035 326.131 708.867 328.019 709.126 328.95C709.828 331.481 710.428 333.985 710.795 336.587C711.958 344.825 710.703 353.228 707.525 360.9C706.216 364.059 704.4 366.953 703.185 370.164C702.841 371.073 704.897 374.735 705.366 375.764C717.427 402.185 736.271 423.059 752.137 447.021C758.318 456.357 764.023 465.983 768.646 476.195C780.799 503.036 784.769 535.324 774.148 563.367C765.539 586.184 751.537 604.838 731.997 619.416C726.507 623.512 720.404 627.792 714.169 630.642C719.222 638.12 722.554 644.843 724.993 653.529C728.263 665.17 730.291 677.363 732.532 689.25L743.684 752.896L758.647 846.124C760.406 858.173 762.846 870.398 763.898 882.516C764.189 885.88 764.194 889.268 763.542 892.591C762.033 900.286 757.993 907.643 751.314 912.021L746.051 914.802C744.224 915.574 742.266 916.222 740.283 916.414C735.025 916.924 729.342 916.527 724.039 916.527L692.705 916.519L589.925 916.654L373.393 916.473L278.5 916.35C276.09 916.321 273.845 916.493 271.882 914.894L269.695 913.254C263.251 908.147 258.677 901.067 257.946 892.746C257.54 888.122 258.683 883.05 259.436 878.5L262.301 860.737L270.57 808.664L284.242 716.842L290.388 676.524C291.585 668.932 292.384 660.882 294.363 653.461C296.739 644.556 301.986 636.998 307.757 629.968C303.107 626.93 298.358 624.236 293.915 620.871C274.453 606.131 260.704 586.978 251.359 564.562Z"/>
	<path fill="#328A87" transform="matrix(0.244141 0 0 0.244141 -3.05176e-05 -3.05176e-05)" d="M273.84 816.181C275.102 818.61 274.797 820.321 274.472 822.947L271.519 845.25C270.907 849.855 270.514 854.978 269.342 859.451C269.156 860.159 269.242 860.643 269.354 861.354C269.199 864.42 268.758 868.338 267.25 871.074C266.632 870.314 266.386 870.309 266.386 869.296C266.386 868.312 266.415 868.705 266.245 867.77L265.899 870.192L265.609 869.6L265.28 869.169L273.84 816.181Z"/>
	<path fill="#FFCDB2" transform="matrix(0.244141 0 0 0.244141 -3.05176e-05 -3.05176e-05)" d="M635.659 303.487C639.113 303.621 647.724 304.411 650.169 306.832C654.069 310.696 652.509 323.17 652.421 328.479L635.659 303.487Z"/>
	<path fill="#FC947E" transform="matrix(0.244141 0 0 0.244141 -3.05176e-05 -3.05176e-05)" d="M547.632 196.25L547.865 196.58C537.324 218.455 521.606 239.029 503.645 255.333C492.029 265.877 479.574 274.756 466.771 283.757C461.905 279.952 456.763 278.452 450.914 276.749L443.413 275.423C443.914 274.799 445.218 274.452 445.984 274.135L455.876 270.315C466.789 265.988 477.762 260.614 487.766 254.469C512.339 239.375 531.146 219.741 547.632 196.25Z"/>
	<path fill="#FFCDB2" transform="matrix(0.244141 0 0 0.244141 -3.05176e-05 -3.05176e-05)" d="M363.328 383.077L366.858 396.766C353.487 396.003 339.989 388.237 330.932 378.661C321.86 369.07 314.89 355.073 315.637 341.583C316.138 332.548 319.312 325.605 326.145 319.612C332.56 313.985 339.184 312.501 347.444 313.037L348.78 319.704L355.974 322.062L356.062 322.677L355.728 324.002C353.053 323.971 350.364 323.006 347.734 322.503C341.379 321.29 334.538 321.807 329.697 326.571C324.629 331.559 322.766 338.001 322.941 344.938C323.09 350.888 325.104 355.915 329.5 359.981C332.368 362.634 335.765 364.396 339.368 365.838L339.421 366.545C339.894 372.328 341.771 376.169 346.266 379.96C348.97 382.24 353.864 384.744 357.537 384.25L360.25 383.461C361.382 383.094 362.139 383.014 363.328 383.077Z"/>
	<path fill="#022F40" transform="matrix(0.244141 0 0 0.244141 -3.05176e-05 -3.05176e-05)" d="M347.444 313.037L348.894 310.821C349.215 313.152 349.353 315.582 350.407 317.712C352.393 318.626 357.655 319.663 358.513 321.247L358.496 322.811C358.848 329.242 359.131 336.622 360.792 342.862C362.001 347.405 364.405 351.307 366.44 355.5C372.281 367.537 377.612 378.824 387.75 387.969C393.307 392.982 401.242 397.918 408.25 400.441C421.591 405.244 434.403 406.029 448.221 402.882C463.55 399.39 476.842 388.146 485.04 375C489.202 368.326 492.224 360.608 493.662 352.882C494.508 348.336 494.829 343.037 496.848 338.869L497.123 338.281C498.627 335.234 501.976 333.139 505.108 332.073C510.398 330.273 514.73 330.308 519.747 333.032C523.631 335.14 525.612 338.452 526.749 342.608C528.086 347.495 528.552 352.583 529.85 357.505C534.35 374.573 543.782 387.392 559.058 396.294C563.883 399.105 568.823 401.1 574.25 402.428C576.435 402.963 579.098 402.923 581.099 403.888C586.601 403.953 591.9 404.826 597.446 404.153C618.174 401.637 635.442 389.409 648.134 373.413L649.375 373.875C650.106 372.993 650.765 372.167 651.337 371.17L651.612 370.684L651.789 371.91C649.919 375.465 647.076 378.781 644.4 381.771C635.04 392.229 623.472 399.664 610.086 403.859C602.32 406.293 592.362 408.094 584.24 406.496C578.6 406.738 571.258 404.599 566.036 402.496C545.263 394.133 532.19 378.465 526.75 356.89C525.57 352.209 525.698 345.772 523.689 341.587C522.163 338.406 519.476 336.158 516.152 335.013C512.779 333.852 508.336 333.7 505.068 335.336C497.645 339.05 498.019 345.56 496.855 352.717C496.324 355.982 495.478 359.105 494.507 362.261C489.632 378.112 477.51 392.318 462.861 399.978C447.815 407.845 428.873 409.994 412.6 404.723C392.582 398.24 377.698 385.052 368.25 366.378C365.809 361.553 364.386 356.227 361.935 351.474C361.668 353.465 362.487 356.544 362.78 358.602C364.285 369.191 366.49 379.341 369.295 389.662L368.946 390.33L368.377 390C368.126 389.288 367.98 388.763 367.877 388C367.689 386.601 367.73 386.232 366.755 385.25L367 384.25C366.569 383.245 366.628 383.612 366.539 382.633C366.458 381.745 366.36 381.859 365.755 381.25L366 380L365.503 379.375C365.394 378.614 365.27 378.084 365.002 377.375C364.668 376.489 364.85 376.169 365 375.25C364.154 374.231 364.344 374.02 364.255 372.75L363.755 372.25L363.877 371L364 370.25L363.255 369.75C363.543 368.902 363.568 368.113 363.255 367.25C362.735 365.817 362.87 367.239 362.87 365.492L362.877 364.5C362.697 363.304 362.131 362.764 362.354 361.398L362.5 360.75L361.755 360C361.912 359.013 362.163 358.081 361.781 357.125C361.399 356.17 361.289 355.283 361.255 354.25L361.25 353.5C361.131 352.71 360.783 352.14 360.755 351.25C360.724 350.264 360.86 350.732 360.502 349.828L360.255 349.25L360.75 348C360.833 347.531 360.786 347.045 360.878 346.578L361 346L360.502 345.375L360.5 344.75C360.256 343.861 360.215 343.114 360 342.25C359.762 341.294 359.659 340.016 359.375 339.125C358.942 337.766 359.175 336.785 358.877 335.5C358.56 334.128 358.537 332.927 358.5 331.5C357.888 330.731 357.839 330.455 357.901 329.475L358 327.75C357.842 325.98 357.836 324.559 357.984 322.768L357.502 321.497C356.759 321.484 356.6 321.697 355.974 322.062L348.78 319.704L347.444 313.037Z"/>
	<path fill="#FFCDB2" transform="matrix(0.244141 0 0 0.244141 -3.05176e-05 -3.05176e-05)" d="M673.004 320.455L673.523 311.76C682.968 312.237 692.517 313.686 699.201 321.028C702.495 324.646 704.255 328.834 705.536 333.5L705.8 334.437C709.134 346.587 703.739 361.744 697.631 372.21C691.098 383.405 682.286 390.676 669.67 393.911L657.735 396.085L664.351 374.268C665.329 374.373 672.067 375.925 672.375 375.728C674.38 375.57 676.324 375.193 678.252 374.62C684.91 372.638 692.113 366.688 695.241 360.494C698.447 354.146 699.035 345.18 696.742 338.43L696.504 337.75C695.495 334.788 694.235 332.079 692.3 329.594C687.012 322.803 681.043 321.473 673.004 320.455Z"/>
	<path fill="#E66C6A" transform="matrix(0.244141 0 0 0.244141 -3.05176e-05 -3.05176e-05)" d="M673.004 320.455C681.043 321.473 687.012 322.803 692.3 329.594C694.235 332.079 695.495 334.788 696.504 337.75L696.742 338.43C699.035 345.18 698.447 354.146 695.241 360.494C692.113 366.688 684.91 372.638 678.252 374.62C676.324 375.193 674.38 375.57 672.375 375.728C672.067 375.925 665.329 374.373 664.351 374.268C668.478 359.73 670.786 344.462 672.32 329.445L673.004 320.455Z"/>
	<path fill="#FC947E" transform="matrix(0.244141 0 0 0.244141 -3.05176e-05 -3.05176e-05)" d="M672.32 329.445C677.186 332.727 680.634 339.002 682.495 344.5L682.775 345.31C684.754 351.344 683.38 359.96 680.446 365.558C678.255 369.739 674.757 371.843 671.529 375L672.248 375.502L672.375 375.728C672.067 375.925 665.329 374.373 664.351 374.268C668.478 359.73 670.786 344.462 672.32 329.445Z"/>
	<path fill="#E66C6A" transform="matrix(0.244141 0 0 0.244141 -3.05176e-05 -3.05176e-05)" d="M363.328 383.077C362.139 383.014 361.382 383.094 360.25 383.461L357.537 384.25C353.864 384.744 348.97 382.24 346.266 379.96C341.771 376.169 339.894 372.328 339.421 366.545L339.368 365.838C335.765 364.396 332.368 362.634 329.5 359.981C325.104 355.915 323.09 350.888 322.941 344.938C322.766 338.001 324.629 331.559 329.697 326.571C334.538 321.807 341.379 321.29 347.734 322.503C350.364 323.006 353.053 323.971 355.728 324.002L356.062 322.677C356.927 326.367 356.565 330.595 356.75 334.391L357.948 349.684C359.02 360.989 361.431 371.919 363.328 383.077Z"/>
	<path fill="#5F6C94" transform="matrix(0.244141 0 0 0.244141 -3.05176e-05 -3.05176e-05)" d="M694.697 382.806L700.006 376.15C706.221 387.864 712.282 399.299 719.792 410.271L749.081 450.89C764.045 473.474 775.448 498.744 775.529 526.269C775.559 536.683 774.436 547.214 771.379 557.21C763.86 581.802 748.897 599.687 729.46 615.887C732.921 611.501 736.717 607.311 739.941 602.75C747.98 591.377 755.145 577.399 758.859 563.912C760.167 561.744 760.798 558.098 761.434 555.641C765.847 538.61 765.353 522.123 762.558 504.876C762.502 499.95 759.726 492.913 758.043 488.234C751.221 469.269 740.558 452.919 728.32 437.038C726.022 434.056 723.18 429.413 719.816 427.824L694.697 382.806Z"/>
	<path fill="#75B1B3" transform="matrix(0.244141 0 0 0.244141 -3.05176e-05 -3.05176e-05)" d="M273.84 816.181C275.663 807.636 276.457 798.648 277.834 789.995L289.559 710.211L295.126 675.04C296.998 664.112 297.648 653.587 303.138 643.703C307.606 635.659 314.472 629.14 322.014 623.979C336.394 614.139 354.143 607.754 370.471 601.812L408.189 589.259L410.57 597.185L360.42 616.355C347.076 621.829 332.869 627.76 321.467 636.775C315.682 642.387 312.032 646.696 309.23 654.344C306.775 661.047 305.658 668.516 304.344 675.521L298.627 706.5L278.242 814.929L271.688 848.78C270.839 852.962 270.37 857.196 269.354 861.354C269.242 860.643 269.156 860.159 269.342 859.451C270.514 854.978 270.907 849.855 271.519 845.25L274.472 822.947C274.797 820.321 275.102 818.61 273.84 816.181Z"/>
	<defs>
		<linearGradient id="gradient_0" gradientUnits="userSpaceOnUse" x1="534.83008" y1="273.14648" x2="472.12546" y2="213.0874">
			<stop offset="0" stop-color="#F98E82"/>
			<stop offset="1" stop-color="#FDADA8"/>
		</linearGradient>
	</defs>
	<path fill="url(#gradient_0)" transform="matrix(0.244141 0 0 0.244141 -3.05176e-05 -3.05176e-05)" d="M580.863 167.027L584.36 183.945L583.828 184.778C581.901 188.022 582.2 194.794 581.468 198.75C580.082 206.236 577.723 213.431 575.273 220.619C569.66 237.091 558.907 248.969 546.824 260.999C531.333 276.423 511.796 292.236 490.656 298.77C487.973 299.6 482.975 300.167 481.047 302.126L460.135 294.239C455.998 293.524 451.969 292.217 447.807 291.547C430.733 288.798 414.69 289.777 397.647 291.69L397.978 290.751C404.701 285.122 413.075 282.711 421.75 282.458L422.75 283.516C431.323 283.346 439.899 285.173 448 287.967C450.801 288.933 454.942 291.179 457.794 291.386C458.999 291.473 460.492 291.075 461.689 290.877C462.535 290.114 469.629 290.434 471.136 290.423L467.922 285.266C494.92 281.484 520.511 267.324 540.5 249.037C558.888 232.215 571.824 211.328 577.449 186.969C578.719 181.468 579.845 176.026 580.089 170.374L580.863 167.027Z"/>
	<path fill="#FFCDB2" transform="matrix(0.244141 0 0 0.244141 -3.05176e-05 -3.05176e-05)" d="M338.265 737.88C339.171 734.572 340.224 731.943 342.714 729.504C345.18 727.087 348.092 725.605 351.523 725.316C356.184 724.924 361.082 725.219 365.762 725.244L390.825 725.357L472.227 725.441L612.359 725.485L682.483 725.47C684.143 725.512 685.061 726.032 686.111 727.262C687.685 729.104 687.468 730.715 687.269 733.025L461.217 732.843L387.478 732.939C375.174 732.966 362.257 732.163 350.045 733.258C345.958 733.624 343.06 735.15 339.681 737.343C338.773 737.933 339.226 737.783 338.265 737.88Z"/>
	<path fill="#75B1B3" transform="matrix(0.244141 0 0 0.244141 -3.05176e-05 -3.05176e-05)" d="M613.639 597.609C614.023 595.907 614.53 590 615.366 588.996L663.388 604.918C674.735 608.94 687.169 612.501 697.118 619.451C704.487 624.598 710.282 631.568 714.468 639.487C721.532 652.85 723.581 668.106 726.506 682.75L738.399 749.689L755.331 856.482L754.811 856.337C754.282 851.438 752.397 846.19 751.312 841.332L740.538 795L723.25 715.293C717.963 690.922 714.612 664.205 703.218 641.845C691.306 624.178 673.818 618.204 654.592 611.347L626.157 601.779C622.973 600.843 615.769 599.803 613.639 597.609Z"/>
	<path fill="#4A4063" transform="matrix(0.244141 0 0 0.244141 -3.05176e-05 -3.05176e-05)" d="M719.816 427.824C723.18 429.413 726.022 434.056 728.32 437.038C740.558 452.919 751.221 469.269 758.043 488.234C759.726 492.913 762.502 499.95 762.558 504.876C758.431 511.524 755.104 518.525 750.157 524.67C730.074 549.617 696.885 558.394 666.489 561.475L669.432 560.154C694.811 548.669 718.712 526.435 728.494 499.916C737.822 474.627 730.549 451.169 719.816 427.824Z"/>
	<path fill="#B5838D" transform="matrix(0.244141 0 0 0.244141 -3.05176e-05 -3.05176e-05)" d="M462.549 574.556L462.572 509.921C473.279 520.278 489.905 526.138 504.487 527.741C524.816 529.977 545.781 522.695 561.507 509.975L561.569 541.743C543.713 554.757 525.411 563.742 502.63 560.115C487.437 557.696 475.713 550.227 463.049 542.099L462.961 564.309C462.96 567.018 463.603 572.156 462.549 574.556Z"/>
	<path fill="#4A4063" transform="matrix(0.244141 0 0 0.244141 -3.05176e-05 -3.05176e-05)" d="M275.606 596.88C265.39 584.971 257.576 569.498 252.639 554.655C241.049 519.815 249.313 484.222 270.067 454.722L302.638 412.766C311.063 400.815 316.787 388.267 323.293 375.298C326.043 377.918 328.259 381.438 330.904 384.274C326.591 395.256 320.963 405.82 314.875 415.92C306.828 429.27 297.632 442.035 293.21 457.198C288.514 473.306 290.7 489.962 297.356 505.169C304.299 521.03 316.666 535.484 330.244 546.097C334.648 549.54 339.267 552.634 344.128 555.396C345.875 556.389 361.218 563.762 361.681 564.683C331.755 563.769 299.869 553.316 278.903 531.136C270.819 522.584 265.697 512.754 261.479 501.891C259.221 511.976 257.343 521.78 257.091 532.156C256.735 546.831 260.144 563.49 265.75 577.023L271.789 589.786C273.049 592.191 274.584 594.347 275.606 596.88Z"/>
	<path fill="#FFCDB2" transform="matrix(0.244141 0 0 0.244141 -3.05176e-05 -3.05176e-05)" d="M584.36 183.945C592.759 217.453 607.727 249.771 630.07 276.346C632.736 279.517 635.409 282.641 638.322 285.59L645.24 292.16C646.351 293.132 647.893 294.042 648.444 295.426C642.208 293.781 635.65 293.068 629.268 292.167C606.941 289.014 584.691 287.963 562.605 293.528C556.023 295.186 549.135 297.335 543.255 300.786C539.326 303.093 535.753 305.978 532.156 308.76C530.106 310.345 527.886 312.256 525.391 313.073C520.831 314.565 514.891 313.872 510.127 313.747C506.526 313.652 501.55 314.05 498.14 313.093C495.283 312.291 492.896 310.235 490.558 308.494C487.452 306.181 484.421 304.038 481.047 302.126C482.975 300.167 487.973 299.6 490.656 298.77C511.796 292.236 531.333 276.423 546.824 260.999C558.907 248.969 569.66 237.091 575.273 220.619C577.723 213.431 580.082 206.236 581.468 198.75C582.2 194.794 581.901 188.022 583.828 184.778L584.36 183.945Z"/>
	<path fill="#022F40" transform="matrix(0.244141 0 0 0.244141 -3.05176e-05 -3.05176e-05)" d="M581.254 274.199L581.392 274.162C595.402 272.827 611.551 276.407 623.081 284.544C619.952 283.526 616.665 282.272 613.415 281.732C605.169 280.362 595.75 281.316 587.705 283.35L572.398 287.852C568.312 289.183 563.771 291.36 559.369 290.752C557.211 290.455 556.018 289.672 554.75 287.956C555.088 287.058 554.938 287.282 555.377 286.626L555.644 286.25L553.75 285.368L553.454 284.5L553.928 283.883C559.586 276.884 572.879 275.073 581.254 274.199Z"/>
	<path fill="#FFCDB2" transform="matrix(0.244141 0 0 0.244141 -3.05176e-05 -3.05176e-05)" d="M414.855 301.025C416.505 300.845 418.614 300.327 420.203 300.795L421.345 300.737C434.245 299.783 449.553 302.054 461.748 306.207C466.672 307.884 471.887 310.171 475.833 313.622C481.934 318.958 485.14 329.293 485.505 337.25C486.233 353.113 482.954 364.832 473.987 377.875C467.887 384.544 461.82 390.168 453.259 393.493C440.028 398.633 425.395 399.372 412.25 393.461C395.004 385.706 385.247 373.256 378.506 355.954L376.117 346.373L375.799 343.802C374.777 334.11 374.412 321.104 381.149 313.2C389.087 303.886 403.379 301.755 414.855 301.025Z"/>
	<path fill="#FC947E" transform="matrix(0.244141 0 0 0.244141 -3.05176e-05 -3.05176e-05)" d="M412.852 361.834L420.456 364.251L420.817 364.595C422.201 365.883 423.615 367.466 423.999 369.378C424.106 369.913 424.161 369.976 423.821 370.329C422.614 371.586 419.505 372.066 417.849 372.278C414.446 372.713 409.296 372.743 406.609 370.399C405.375 369.324 405.15 369.099 404.991 367.5C405.897 365.766 406.722 364.904 408.473 363.999L412.852 361.834Z"/>
	<path fill="#022F40" transform="matrix(0.244141 0 0 0.244141 -3.05176e-05 -3.05176e-05)" d="M420.203 300.795L421.345 300.737C422.384 303.56 423.224 306.087 426.134 307.508C428.14 308.488 430.521 309.036 432.666 309.657L435.25 310.429C435.443 308.943 434.089 308.297 434.25 306.475C436.306 307.731 437.08 309.797 438.671 311.473C440.061 312.938 444.71 314.233 446.709 315.293C456.97 320.735 463.856 332.375 464.919 343.829C465.245 347.344 465.037 351.493 463.432 354.683C464.109 349.33 463.923 344.887 462.362 339.709C459.919 331.609 455.177 324.116 447.476 320.182C439.146 315.926 429.652 315.211 420.837 318.287C411.144 321.67 404.833 328.219 400.504 337.387C398.596 341.925 397.98 347.236 397.098 352.073C396.467 349.641 395.679 347.043 395.526 344.53C395.218 339.475 396.79 333.96 398.014 329.108L398.345 328.018C395.856 325.859 392.832 325.072 390.75 322.313L391.107 321.67C393.755 322.181 396.733 324.041 399.186 325.238L403.98 319.722L403.921 319.23C400.004 317.427 396.581 315.448 393.077 312.933C399.504 313.707 405.347 314.564 411.758 313.044C411.945 313 413.479 312.654 413.516 312.607C413.696 312.38 412.897 304.612 413.082 303.5C413.15 303.092 413.965 302.073 414.216 301.667C415.793 305.732 416.319 308.197 420.481 310.212C420.831 309.503 421.482 308.864 421.987 308.25L420.203 300.795Z"/>
	<path fill="#FC947E" transform="matrix(0.244141 0 0 0.244141 -3.05176e-05 -3.05176e-05)" d="M414.855 301.025C416.505 300.845 418.614 300.327 420.203 300.795L421.987 308.25C421.482 308.864 420.831 309.503 420.481 310.212C416.319 308.197 415.793 305.732 414.216 301.667C413.965 302.073 413.15 303.092 413.082 303.5C412.897 304.612 413.696 312.38 413.516 312.607C413.479 312.654 411.945 313 411.758 313.044C405.347 314.564 399.504 313.707 393.077 312.933C396.581 315.448 400.004 317.427 403.921 319.23L403.98 319.722L399.186 325.238C396.733 324.041 393.755 322.181 391.107 321.67L390.75 322.313C392.832 325.072 395.856 325.859 398.345 328.018L398.014 329.108C395.024 329.329 393.656 330.984 391.75 333.182C387.169 338.467 383.718 353.272 378.506 355.954L376.117 346.373L375.799 343.802C374.777 334.11 374.412 321.104 381.149 313.2C389.087 303.886 403.379 301.755 414.855 301.025Z"/>
	<path fill="#FEFEFE" transform="matrix(0.244141 0 0 0.244141 -3.05176e-05 -3.05176e-05)" d="M400.504 337.387C404.833 328.219 411.144 321.67 420.837 318.287C429.652 315.211 439.146 315.926 447.476 320.182C455.177 324.116 459.919 331.609 462.362 339.709C463.923 344.887 464.109 349.33 463.432 354.683L462.895 355.268L462.056 359.781C459.074 360.389 448.727 363.934 446.56 362.814C451.823 358.365 455.888 353.132 456.473 345.954C456.946 340.136 454.905 334.151 451.172 329.688C447.476 325.269 441.506 322.287 435.75 321.988C430.381 321.708 425.128 323.937 421.203 327.558C417.048 331.392 413.424 336.975 413.342 342.781C413.256 348.831 415.821 355.684 419.945 360.134C421.101 361.38 422.556 362.333 423.96 363.276L420.456 364.251L412.852 361.834L408.765 358.938C401.95 353.207 401.245 345.681 400.504 337.387Z"/>
	<path fill="#192A51" transform="matrix(0.244141 0 0 0.244141 -3.05176e-05 -3.05176e-05)" d="M423.96 363.276C422.556 362.333 421.101 361.38 419.945 360.134C415.821 355.684 413.256 348.831 413.342 342.781C413.424 336.975 417.048 331.392 421.203 327.558C425.128 323.937 430.381 321.708 435.75 321.988C441.506 322.287 447.476 325.269 451.172 329.688C454.905 334.151 456.946 340.136 456.473 345.954C455.888 353.132 451.823 358.365 446.56 362.814C440.907 366.027 435.801 367.029 429.433 365.353C427.533 364.853 425.751 364.068 423.96 363.276Z"/>
	<path fill="#FEFEFE" transform="matrix(0.244141 0 0 0.244141 -3.05176e-05 -3.05176e-05)" d="M423.403 346.145C421.331 345.07 418.766 343.43 418.194 340.976C417.89 339.676 418.044 338.759 418.782 337.635C419.665 336.29 421.063 335.535 422.633 335.361C425.052 335.093 426.597 335.518 428.519 336.977C429.405 339.17 429.69 340.276 428.596 342.575C427.708 344.441 426.506 345.254 424.569 345.83L423.403 346.145Z"/>
	<path fill="#022F40" transform="matrix(0.244141 0 0 0.244141 -3.05176e-05 -3.05176e-05)" d="M428.519 336.977C429.694 334.731 432.315 333.452 434.722 332.706C437.816 331.748 439.936 331.59 442.823 333.335C445.446 334.92 447.933 338.249 448.391 341.314C448.886 344.623 447.909 348.272 445.75 350.848C443.231 353.855 439.684 355.622 435.772 355.875C433.357 356.032 431.168 354.788 429.453 353.183C427.511 351.365 424.456 348.576 423.403 346.145L424.569 345.83C426.506 345.254 427.708 344.441 428.596 342.575C429.69 340.276 429.405 339.17 428.519 336.977Z"/>
	<path fill="#FFCDB2" transform="matrix(0.244141 0 0 0.244141 -3.05176e-05 -3.05176e-05)" d="M546.346 373.915C539.588 361.475 535.692 346.038 539.204 331.915C541.201 323.886 543.753 317.014 550.329 311.507C553.633 308.74 557.896 306.901 561.876 305.328C576.198 299.668 590.899 298.153 606.211 299.582C611.996 300.121 618.601 301.031 623.852 303.577C628.894 306.022 632.557 309.976 636.171 314.153L651.654 333.612L647.849 350.911C645.826 356.01 644.223 361.212 641.692 366.103C635.602 377.871 624.691 387.388 612.579 392.581C598.756 398.508 583.76 398.993 569.808 393.301C559.395 389.052 552.956 382.746 546.346 373.915Z"/>
	<path fill="#4A4063" transform="matrix(0.244141 0 0 0.244141 -3.05176e-05 -3.05176e-05)" d="M584.728 310.834C587.782 309.938 588.679 308.843 590.25 306.041C591.003 307.667 590.996 308.343 592.5 309.449C594.133 308.781 596.62 306.301 597.885 305.976C598.429 305.836 600.55 306.377 601.192 306.49C606.976 307.51 612.268 310.199 617.979 311.295C620.305 311.741 622.843 311.692 625.21 311.78C623.835 312.57 621.705 314.216 620.172 314.352C617.698 313.863 615.211 314.371 612.802 313.889C609.621 313.252 606.513 311.642 603.342 310.827C600.943 310.211 598.585 310.099 596.12 310.033C595.021 310.004 593.553 309.829 592.5 310.136C589.581 310.988 587.748 310.96 584.728 310.834Z"/>
	<path fill="#022F40" transform="matrix(0.244141 0 0 0.244141 -3.05176e-05 -3.05176e-05)" d="M584.728 310.834C587.748 310.96 589.581 310.988 592.5 310.136C593.553 309.829 595.021 310.004 596.12 310.033C598.585 310.099 600.943 310.211 603.342 310.827C606.513 311.642 609.621 313.252 612.802 313.889C615.211 314.371 617.698 313.863 620.172 314.352L616.153 316.101L617.307 317.189L617.767 317.463C621.674 319.528 629.695 317.87 633.925 316.965L635.883 316.585C632.549 320.661 629.046 324.043 623.907 325.713C625.265 327.027 625.669 328.676 626.282 330.425L639.238 326.853C634.498 330.239 630.312 332.959 624.752 334.875C623.836 335.19 624.199 335.056 623.175 335.554C620.176 327.696 613.788 322.101 606.213 318.738C596.747 314.537 587.133 314.603 577.567 318.519C570.165 321.549 564.753 327.195 561.758 334.579C559.439 340.296 558.759 345.334 558.92 351.498C558.346 350.745 557.842 350.087 557.579 349.162C555.713 342.597 558.006 333.609 561.379 327.825C566.897 318.363 574.311 313.65 584.728 310.834Z"/>
	<path fill="#FEFEFE" transform="matrix(0.244141 0 0 0.244141 -3.05176e-05 -3.05176e-05)" d="M558.92 351.498C558.759 345.334 559.439 340.296 561.758 334.579C564.753 327.195 570.165 321.549 577.567 318.519C587.133 314.603 596.747 314.537 606.213 318.738C613.788 322.101 620.176 327.696 623.175 335.554C623.521 342.267 621.34 348.779 616.864 353.873C611.34 360.16 602.453 364.776 594 364.962C592.424 364.997 591.386 364.973 590.066 364.142L591.751 363.594L593.295 363.101C598.172 361.46 602.478 358.248 604.807 353.596L603.925 351.75L604.538 348C605.567 338.646 603.84 332.872 597.921 325.502L598.149 324.786C594.221 321.93 589.016 320.953 584.25 321.583C579.529 322.206 574.882 325.081 571.694 328.543C570.683 329.904 569.604 331.226 568.848 332.75C570.022 332.75 570.047 331.941 571 331.526C572.259 330.979 574.702 331.809 575.593 332.75C576.615 333.829 576.835 334.861 577.037 336.25C576.642 338.033 575.861 339.431 574.25 340.429C573.419 340.944 572.386 341.24 571.455 341.522C569.739 341.225 568.825 340.729 567.415 339.721C567.448 338.579 567.802 336.373 567.152 335.509C564.918 340.353 564.523 344.536 566.341 349.639C567.403 352.62 569.148 355.58 571.323 357.899C574.613 361.517 578.283 363.299 583.027 364.296C582.671 364.587 582.432 364.811 582.002 365.019C580.863 365.571 579.203 365.297 577.987 365.18C573.11 364.713 568.533 363.66 564.031 361.688L563.377 361.394C561.704 362.032 560.279 362.796 558.75 363.724L558.172 363.5C559.237 362.227 560.816 361.294 562.17 360.335L559.173 352.055L558.92 351.498Z"/>
	<path fill="#022F40" transform="matrix(0.244141 0 0 0.244141 -3.05176e-05 -3.05176e-05)" d="M598.149 324.786C602.63 327.232 605.477 331.419 606.949 336.25C608.707 342.015 607.586 348.374 604.807 353.596L603.925 351.75L604.538 348C605.567 338.646 603.84 332.872 597.921 325.502L598.149 324.786Z"/>
	<path fill="#192A51" transform="matrix(0.244141 0 0 0.244141 -3.05176e-05 -3.05176e-05)" d="M571.694 328.543C574.882 325.081 579.529 322.206 584.25 321.583C589.016 320.953 594.221 321.93 598.149 324.786L597.921 325.502C603.84 332.872 605.567 338.646 604.538 348L603.925 351.75L604.807 353.596C602.478 358.248 598.172 361.46 593.295 363.101L591.751 363.594L590.066 364.142C587.695 364.421 585.406 364.36 583.027 364.296C578.283 363.299 574.613 361.517 571.323 357.899C569.148 355.58 567.403 352.62 566.341 349.639C564.523 344.536 564.918 340.353 567.152 335.509C567.802 336.373 567.448 338.579 567.415 339.721C568.825 340.729 569.739 341.225 571.455 341.522C572.386 341.24 573.419 340.944 574.25 340.429C575.861 339.431 576.642 338.033 577.037 336.25C576.835 334.861 576.615 333.829 575.593 332.75C574.702 331.809 572.259 330.979 571 331.526C570.047 331.941 570.022 332.75 568.848 332.75C569.604 331.226 570.683 329.904 571.694 328.543Z"/>
	<path fill="#022F40" transform="matrix(0.244141 0 0 0.244141 -3.05176e-05 -3.05176e-05)" d="M571.694 328.543C573.596 329.025 575.399 329.498 577.365 329.62C580.543 329.818 582.854 331.35 584.965 333.673C586.801 335.693 587.684 337.642 587.533 340.41C587.404 342.781 586.01 344.938 584.226 346.443C582.495 347.903 580.395 348.733 578.118 348.424C575.598 348.082 574.057 346.767 572.527 344.75C571.995 344.048 571.593 343.247 571.222 342.451L571.455 341.522C572.386 341.24 573.419 340.944 574.25 340.429C575.861 339.431 576.642 338.033 577.037 336.25C576.835 334.861 576.615 333.829 575.593 332.75C574.702 331.809 572.259 330.979 571 331.526C570.047 331.941 570.022 332.75 568.848 332.75C569.604 331.226 570.683 329.904 571.694 328.543Z"/>
	<path fill="#187777" transform="matrix(0.244141 0 0 0.244141 -3.05176e-05 -3.05176e-05)" d="M647.379 719.971L703.218 641.845C714.612 664.205 717.963 690.922 723.25 715.293L740.538 795L751.312 841.332C752.397 846.19 754.282 851.438 754.811 856.337L755.331 856.482C756.419 860.153 756.784 864.077 757.389 867.852C758.476 874.624 759.526 881.124 759.716 887.992L662.167 888.118C663.409 884.425 663.978 880.141 664.78 876.312L669.211 854.052C685.853 854.025 702.435 853.795 719.044 855.055L744.118 858.023C728.578 852.692 713.271 850.087 696.859 849.961L684.842 792.757L685.089 791.738C684.168 789.967 683.269 790.192 682.143 788.612L687.631 758.75L691.096 739.983C691.79 736.266 693.189 731.332 692.154 727.632C691.21 724.256 688.17 721.935 685.239 720.342L684.744 720.079L687.082 704.858L683.184 720.182L647.379 719.971Z"/>
	<path fill="#187777" transform="matrix(0.244141 0 0 0.244141 -3.05176e-05 -3.05176e-05)" d="M321.467 636.775L370.74 719.897C372.969 719.929 375.3 719.817 377.509 720.085C364.04 720.88 347.258 717.278 337.342 728.426C334.122 732.047 333.133 736.11 333.457 740.866C333.767 745.41 335.136 749.975 336.088 754.426L343.522 789L343.639 789.663C344.098 792.684 342.836 796.34 342.343 799.341L338.139 823.859C335.152 826.237 333.201 829.536 330.75 832.42C327.785 835.91 324.49 839.26 321.084 842.32C318.472 844.668 315.784 846.777 312.823 848.664C310.204 850.334 306.783 851.656 304.779 854.029C296.774 855.372 287.881 856.703 280.316 859.75C282.872 860.259 287.371 858.948 290.109 858.615L309.5 856.814C325.697 855.702 342.045 855.054 358.279 855.619L364.675 883.108L262.72 883.082L265.28 869.169L265.609 869.6L265.899 870.192L266.245 867.77C266.415 868.705 266.386 868.312 266.386 869.296C266.386 870.309 266.632 870.314 267.25 871.074C268.758 868.338 269.199 864.42 269.354 861.354C270.37 857.196 270.839 852.962 271.688 848.78L278.242 814.929L298.627 706.5L304.344 675.521C305.658 668.516 306.775 661.047 309.23 654.344C312.032 646.696 315.682 642.387 321.467 636.775Z"/>
	<path fill="#FFCDB2" transform="matrix(0.244141 0 0 0.244141 -3.05176e-05 -3.05176e-05)" d="M462.549 574.556C463.603 572.156 462.96 567.018 462.961 564.309L463.049 542.099C475.713 550.227 487.437 557.696 502.63 560.115C525.411 563.742 543.713 554.757 561.569 541.743L561.558 575.088L600.796 585.673C594.419 612.113 581.355 635.781 557.52 650.339C537.988 662.269 514.425 666.572 492.094 661.15C469.238 655.6 449.298 640.585 437.132 620.518C430.464 609.519 426.784 597.362 422.925 585.185L450.521 577.833C454.34 576.846 458.987 576.187 462.549 574.556Z"/>
	<path fill="#4A4063" transform="matrix(0.244141 0 0 0.244141 -3.05176e-05 -3.05176e-05)" d="M322.289 248.872C325.05 234.243 328.391 220.007 333.505 206C342.946 180.145 358.529 155.271 378.131 135.85C385.94 128.113 394.978 121.218 404.056 115.041C445.626 86.7554 497.628 75.454 547.154 84.9286C596.908 94.447 641.794 121.461 670.47 163.69C694.154 198.567 705.173 238.668 706.887 280.498C707.41 293.26 707.327 306.842 704.877 319.375L704.535 321.046L698.072 313.886C698.57 305.041 698.947 295.925 697.72 287.132L697.691 286.902C696.739 278.609 695.112 270.564 693.061 262.48C692.168 258.961 691.226 254.571 689.669 251.299C688.731 249.328 684.045 248.224 681.978 247.306C670.897 242.387 660.863 235.079 651.779 227.117C631.675 209.495 616.633 188.423 602.975 165.574C598.311 157.773 593.209 149.993 589.917 141.49L599.54 153.5C619.715 176.594 644.428 194.997 675.905 197.173C667.253 180.814 658.236 166.454 645.952 152.532C614.005 116.327 568.256 94.737 520.168 91.9203C489.781 90.1405 456.7 98.0438 429.834 112.231C415.086 120.019 401.452 130.047 389.008 141.109C411.254 159.989 441.663 170.998 470.867 169.94C502.76 168.784 532.976 154.12 556.161 132.52C562.932 126.212 568.623 119.256 574.906 112.528C568.47 129.256 558.052 143.946 546.405 157.438C520.735 187.174 483.462 209.429 443.838 212.253C410.828 214.606 380.79 203.385 356.05 181.879C344.231 202.84 334.296 225.931 328.419 249.312L328.02 249.589L318.932 291.227C318.297 288.95 318.831 285.412 318.91 283.009C319.286 271.601 320.68 260.165 322.289 248.872Z"/>
	<path fill="#FFCDB2" transform="matrix(0.244141 0 0 0.244141 -3.05176e-05 -3.05176e-05)" d="M668.014 333.545L668.75 331.051L669.292 331C665.962 364.508 656.049 399.592 638.807 428.65C627.084 448.408 610.47 467.138 592.683 481.671C567.479 502.265 534.337 515.472 501.476 512.01C461.06 507.752 427.074 483.071 402.176 452.022C387.261 433.423 376.953 412.105 369.295 389.662C366.49 379.341 364.285 369.191 362.78 358.602C362.487 356.544 361.668 353.465 361.935 351.474C364.386 356.227 365.809 361.553 368.25 366.378C377.698 385.052 392.582 398.24 412.6 404.723C428.873 409.994 447.815 407.845 462.861 399.978C477.51 392.318 489.632 378.112 494.507 362.261C495.478 359.105 496.324 355.982 496.855 352.717C498.019 345.56 497.645 339.05 505.068 335.336C508.336 333.7 512.779 333.852 516.152 335.013C519.476 336.158 522.163 338.406 523.689 341.587C525.698 345.772 525.57 352.209 526.75 356.89C532.19 378.465 545.263 394.133 566.036 402.496C571.258 404.599 578.6 406.738 584.24 406.496C592.362 408.094 602.32 406.293 610.086 403.859C623.472 399.664 635.04 392.229 644.4 381.771C647.076 378.781 649.919 375.465 651.789 371.91C654.709 368.48 656.759 364.079 658.62 360C662.497 351.5 665.603 342.569 668.014 333.545Z"/>
	<path fill="#FC947E" transform="matrix(0.244141 0 0 0.244141 -3.05176e-05 -3.05176e-05)" d="M495.255 402.25L496.505 402.526L496.745 403.25C498.021 405.427 501.894 407.979 504.247 408.77L504.998 409.007L506.498 409.51L507.75 409.755C509.878 410.549 513.159 410.58 515.457 410.157L516.003 410.025L519.423 409.113C520.958 408.804 522.088 408.089 523.503 407.502C524.634 407.034 523.954 407.583 524.923 406.613L525.503 406.002L525.997 406.002L526.245 406.75L524.73 408.016L523 409.245L522.25 409.745L522.194 411C521.397 412.322 520.607 412.813 519.148 413.33C515.127 414.755 510.734 415.141 506.667 413.607C506.358 413.491 504.86 412.99 504.654 412.75C503.995 411.982 504.317 411.196 503.25 410.745C502.374 410.375 501.994 410.22 501.22 409.59L500.502 408.997L499.75 408.745C497.613 407.413 496.178 404.463 495.255 402.25Z"/>
	<path fill="#D16259" transform="matrix(0.244141 0 0 0.244141 -3.05176e-05 -3.05176e-05)" d="M544.953 439.355L547.75 438.04C547.457 439.165 544.211 441.371 543.1 442.137C539.662 442.194 534.904 445.555 531.311 446.681C527.841 447.769 524.622 448.17 521.053 448.659C508.527 450.374 496.045 448.739 484.667 443.301C483.65 442.331 482.852 442.372 481.518 442.082C480.109 441.013 478.897 439.917 477.691 438.623L478.971 438.971C482.082 440.887 485.276 442.78 488.75 443.966C500.588 448.008 517.216 448.084 529.291 445.222C534.783 443.92 540.126 442.381 544.953 439.355Z"/>
	<path fill="#FC947E" transform="matrix(0.244141 0 0 0.244141 -3.05176e-05 -3.05176e-05)" d="M484.667 443.301C496.045 448.739 508.527 450.374 521.053 448.659C524.622 448.17 527.841 447.769 531.311 446.681C534.904 445.555 539.662 442.194 543.1 442.137C541.844 443.368 540.524 444.967 538.912 445.703C536.968 445.617 534.159 447.253 532.305 447.949C524.362 450.928 514.805 453.41 506.273 451.734C500.512 450.603 494.701 449.53 489.391 446.915C487.435 445.951 485.994 445.272 484.274 443.852L484.667 443.301Z"/>
	<path fill="#E66C6A" transform="matrix(0.244141 0 0 0.244141 -3.05176e-05 -3.05176e-05)" d="M481.518 442.082C482.852 442.372 483.65 442.331 484.667 443.301L484.274 443.852C485.994 445.272 487.435 445.951 489.391 446.915C494.701 449.53 500.512 450.603 506.273 451.734C514.805 453.41 524.362 450.928 532.305 447.949C534.159 447.253 536.968 445.617 538.912 445.703C530.632 451.705 520.277 455.816 509.914 455.338C498.872 454.83 489.006 450.169 481.518 442.082Z"/>
	<path fill="#328A87" transform="matrix(0.244141 0 0 0.244141 -3.05176e-05 -3.05176e-05)" d="M410.57 597.185C412.465 603.223 414.334 609.218 416.956 614.991C427.139 637.413 443.062 655.174 464.919 666.684C489.255 679.501 518.009 681.076 544.144 672.932C570.751 664.64 592.019 644.222 604.643 619.801C608.445 612.447 610.899 605.348 613.639 597.609C615.769 599.803 622.973 600.843 626.157 601.779L654.592 611.347C673.818 618.204 691.306 624.178 703.218 641.845L647.379 719.971L377.509 720.085C375.3 719.817 372.969 719.929 370.74 719.897L321.467 636.775C332.869 627.76 347.076 621.829 360.42 616.355L410.57 597.185Z"/>
	<path fill="#4A4063" transform="matrix(0.244141 0 0 0.244141 -3.05176e-05 -3.05176e-05)" d="M338.265 737.88C339.226 737.783 338.773 737.933 339.681 737.343C343.06 735.15 345.958 733.624 350.045 733.258C362.257 732.163 375.174 732.966 387.478 732.939L461.217 732.843L687.269 733.025L655.825 896.516L372.227 896.988L354.498 814.5C352.531 805.48 336.991 742.025 338.265 737.88Z"/>
	<path fill="#B5838D" transform="matrix(0.244141 0 0 0.244141 -3.05176e-05 -3.05176e-05)" d="M509.734 785.177C514.138 784.802 519.231 785.747 523.034 787.964C528.471 791.132 532.223 796.993 533.629 803.039C534.984 808.863 533.709 815.492 530.427 820.444C526.39 826.533 521.172 829.155 514.26 830.633C508.638 831.083 503.108 830.199 498.494 826.758C493.521 823.05 489.939 817.207 489.191 811C488.399 804.423 490.076 797.852 494.305 792.696C498.378 787.731 503.599 785.858 509.734 785.177Z"/>
</svg>
