<?xml version="1.0" encoding="utf-8" ?>
<svg xmlns="http://www.w3.org/2000/svg" xmlns:xlink="http://www.w3.org/1999/xlink" width="100" height="100">
	<path fill="#B5838D" transform="scale(0.15625 0.15625)" d="M122.366 395.099C139.964 393.53 139.293 404.558 129.865 406.342C127.321 406.482 124.144 406.538 121.639 406.067C111.129 404.094 112.745 396.525 122.366 395.099Z"/>
	<path fill="#B5838D" transform="scale(0.15625 0.15625)" d="M120.832 264.821L141.382 264.743C145.553 264.743 149.942 264.485 154.072 265.066C159.744 265.865 164.736 275.731 151.016 275.905L127.826 275.834C123.945 275.83 119.736 276.149 115.896 275.691C110.666 275.068 107.202 265.679 120.832 264.821Z"/>
	<path fill="#B5838D" transform="scale(0.15625 0.15625)" d="M137.132 353.945L148.509 353.938C152.89 353.915 157.877 354.068 158.05 360C158.238 366.415 152.425 365.597 148.105 365.588L132.926 365.543C127.474 365.521 112.946 368.307 111.873 361.719C110.542 353.553 117.326 354.021 123.173 354.01L137.132 353.945Z"/>
	<path fill="#B5838D" transform="scale(0.15625 0.15625)" d="M116.894 294.131L152.055 294.202C160.675 294.366 162.787 303.895 155.239 305.622C150.291 305.929 116.108 306.019 114.688 305.108C110.152 302.2 111.77 295.151 116.894 294.131Z"/>
	<defs>
		<linearGradient id="gradient_0" gradientUnits="userSpaceOnUse" x1="357.74454" y1="220.41585" x2="304.37701" y2="249.45456">
			<stop offset="0" stop-color="#3F4D74"/>
			<stop offset="1" stop-color="#716986"/>
		</linearGradient>
	</defs>
	<path fill="url(#gradient_0)" transform="scale(0.15625 0.15625)" d="M278.005 230.963L355.241 230.618C357.437 230.617 360.19 230.301 362.325 230.707C367.043 231.603 370.955 243.735 354.005 242.172C347.116 241.536 340.343 241.586 333.421 241.577L305.788 241.554L279.531 241.371C286.048 240.463 292.955 240.913 299.531 240.938C299.426 240.357 299.18 240.289 298.759 239.9C298.697 237.646 296.859 234.096 295.624 232.176L295.46 231.363L280.649 231.261C277.564 231.274 274.482 231.512 271.406 231.175C273.498 231.174 275.67 231.277 277.745 231.001L278.005 230.963Z"/>
	<path fill="#B5838D" transform="scale(0.15625 0.15625)" d="M86.3062 319.725C97.0455 319.255 93.2162 332.019 93.2101 339.512L93.2088 397.021C93.2095 401.704 93.9209 403.311 89.5377 405.881C80.6873 406.541 82.3948 399.379 82.3931 393.338L82.2396 322.591C83.0552 321.118 84.8386 320.374 86.3062 319.725Z"/>
	<path fill="#192A51" transform="scale(0.15625 0.15625)" d="M359.883 274.698L361.148 273.281C363.765 270.857 370.004 272.823 370.391 276.466C370.654 278.938 370.499 281.589 370.511 284.078L372.534 348.452C372.616 350.976 373.008 353.772 372.489 356.25C371.333 361.777 361.457 363.931 361.007 351.479L360.707 339.914C360.547 335.152 359.627 330.369 359.496 325.593C359.238 316.224 359.859 306.677 359.176 297.344C359.412 295.218 360.637 280.103 359.65 278.284C359.114 278.886 359.658 286.227 358.807 282.833L358.629 282.168C358.295 281.315 358.037 281.051 357.208 280.716C357.018 280.244 359.702 276.241 359.854 275.004L359.883 274.698Z"/>
	<path fill="#B5838D" transform="scale(0.15625 0.15625)" d="M120.812 323.887L190.982 323.863C193.854 323.837 196.833 323.588 199.688 323.755C207.197 324.197 207.924 335.393 197.382 335.282L139.291 334.979C131.919 334.981 124.289 335.392 116.943 334.925C111.182 334.558 108.118 324.574 120.812 323.887Z"/>
	<path fill="#192A51" transform="scale(0.15625 0.15625)" d="M469.631 230.631L522.909 230.558C525.126 230.548 528.086 230.153 530.156 230.934C533.715 234.301 534.651 241.35 529.236 242.266C526.775 242.682 523.867 242.376 521.357 242.367L446.719 242.309L393.613 242.25C376.653 242.066 384.091 231.237 387.677 230.745C390.242 230.392 393.104 230.651 395.713 230.649L469.631 230.631Z"/>
	<path fill="#192A51" transform="scale(0.15625 0.15625)" d="M553.85 230.294L555.312 230.347C560.436 231.156 561.285 234.11 561.274 238.401L561.298 395.821C561.333 400.958 562.175 404.082 556.478 406.313C551.049 406.317 549.033 403.631 549.038 398.7L548.945 237.915C548.916 233.416 549.554 232.269 553.85 230.294Z"/>
	<defs>
		<linearGradient id="gradient_1" gradientUnits="userSpaceOnUse" x1="491.97665" y1="349.32874" x2="371.43857" y2="450.478">
			<stop offset="0" stop-color="#071E4B"/>
			<stop offset="1" stop-color="#605F88"/>
		</linearGradient>
	</defs>
	<path fill="url(#gradient_1)" transform="scale(0.15625 0.15625)" d="M456.63 394.988L522.686 394.942C526.463 394.881 533.807 393.928 533.446 400.586C533.063 407.65 526.359 406.436 521.582 406.335L462.8 406.274L333.578 406.236C338.864 404.559 346.853 405.648 352.638 405.625C352.281 404.576 351.963 403.5 351.3 402.598L349.346 399.531C348.438 398.292 347.747 396.941 346.864 395.661L332.007 395.459C336.845 394.776 341.854 395.027 346.738 395.026L368.204 395.014L456.63 394.988Z"/>
	<path fill="#B5838D" transform="scale(0.15625 0.15625)" d="M333.578 405.775L157.031 406.137C152.123 405.706 150.104 399.135 154.092 396.193L154.375 395.989C155.263 395.275 155.827 395.118 156.949 395.061L368.204 395.011L346.738 395.026C341.854 395.027 336.845 394.776 332.007 395.459L346.864 395.661C347.747 396.941 348.438 398.292 349.346 399.531L351.3 402.598C351.963 403.5 352.281 404.576 352.638 405.625C346.853 405.648 338.864 404.559 333.578 405.775Z"/>
	<path fill="#B5838D" transform="scale(0.15625 0.15625)" d="M358.249 297.986L358.217 298.312C357.909 299.178 356.822 300.43 356.299 301.217L351.344 308.821C345.93 317.191 341.038 326.317 334.97 334.219C326.729 344.951 318.701 332.118 314.482 326.002L296.077 297.593C295.366 296.53 294.692 295.879 294.1 294.655L294.027 349.169C294.019 354.262 294.604 360.661 287.344 360.852C281.744 358.724 283.218 351.881 283.223 347.21L283.201 277.26C283.232 276.289 283.36 274.817 284.092 274.137C290.382 268.287 294.098 273.689 297.653 279.156L305.354 291.563C312.282 302.622 319.674 313.863 327.864 324.021C329.03 323.913 340.97 304.101 342.519 301.547L347.4 293.657C348.24 292.317 349.013 290.744 350.107 289.608L359.883 274.698L359.854 275.004C359.702 276.241 357.018 280.244 357.208 280.716C358.037 281.051 358.295 281.315 358.629 282.168L358.807 282.833C359.658 286.227 359.114 278.886 359.65 278.284C360.637 280.103 359.412 295.218 359.042 297.344L358.249 297.986Z"/>
	<path fill="#B5838D" transform="scale(0.15625 0.15625)" d="M305.788 241.551L93.0904 241.524L93.2699 272.202C92.6522 277.415 83.208 278.342 82.4773 270.938C82.1979 268.107 82.3438 265.141 82.3383 262.293L82.3396 239.34C82.3506 237.975 82.2193 236.223 82.5767 234.899L82.8663 233.912C83.8144 231.56 86.5459 230.813 88.8301 230.724L278.005 230.642L277.745 231.001C275.67 231.277 273.498 231.174 271.406 231.175C274.482 231.512 277.564 231.274 280.649 231.261L295.46 231.363L295.624 232.176C296.859 234.096 298.697 237.646 298.759 239.9C299.18 240.289 299.426 240.357 299.531 240.938C292.955 240.913 286.048 240.463 279.531 241.371L305.788 241.551Z"/>
	<path fill="#192A51" transform="scale(0.15625 0.15625)" d="M459.053 273.262C467.913 273.12 475.879 273.875 484.189 277.144C498.372 282.721 490.891 291.64 486.853 291.313C484.262 291.104 481.477 289.466 479.049 288.572C451.826 278.558 422.787 292.34 426.398 323.514L426.468 324.062C429.669 350.408 459.434 354.112 480.149 347.685C481.826 347.164 483.379 346.922 484.968 346.097L484.993 327.21L468.706 327.222C464.332 327.216 453.229 327.515 456.215 319.969L456.357 319.622C459.419 314.477 465.746 315.329 470.932 315.281L483.914 315.212C488.181 315.199 493.243 313.683 496.085 317.653L496.305 317.969C498.491 321.015 497.224 351.663 496.603 352.656C494.048 356.746 487 358.483 482.628 359.546C452.406 366.895 423.211 360.639 415.267 327.188C412.327 314.808 416.565 298.935 424.717 289.388C433.695 278.874 445.591 274.33 459.053 273.262Z"/>
</svg>
